<svg xmlns="http://www.w3.org/2000/svg" xmlns:xlink="http://www.w3.org/1999/xlink" width="1449.76" height="1463" viewBox="0 0 1449.76 1463"><defs><style>.a,.b{fill:#005ca8;}.a{opacity:0.34;}.b{opacity:0.37;}.c{fill:url(#a);}</style><linearGradient id="a" y1="0.5" x2="1" y2="0.5" gradientUnits="objectBoundingBox"><stop offset="0" stop-color="#005ca8"/><stop offset="1" stop-color="#0876c1"/></linearGradient></defs><g transform="translate(1 -54.11)"><path class="a" d="M.42,54.11S32.81,146.859,71,201.225s88.39,131.116,212.26,196.133,317.39,57.566,317.39,57.566,209.58-14.917,357.56-59.7,371-138.5,371-138.5,106.63-53.3,117.6-59.7l.58,304.34H-1Z" transform="translate(0 0)"/><path class="b" d="M.42,95s56.5,127.04,108.72,174.386,71.31,74.521,179.12,124.621,269.51,50.1,269.51,50.1,157.35-3.184,250.09-17.512,247.75-41.567,247.75-41.567,227.66-55.958,243.4-59.158,147.73-45.833,147.73-45.833V612.061H.42Z" transform="translate(0 24.206)"/><path class="c" d="M.42,425.928V181.33s43.1,83.592,166.31,144.979,257.13,70.841,257.13,70.841,110.48,7.408,180.12,7.408,306.67-20.1,306.67-20.1,262.48-34.974,309.35-42.3,208.91-37.039,208.91-37.039l18.75-4.23,1.1,1140.909H.42Z" transform="translate(0 75.312)"/></g></svg>