<svg id="Capa_1" data-name="Capa 1" xmlns="http://www.w3.org/2000/svg" xmlns:xlink="http://www.w3.org/1999/xlink" viewBox="0 0 256 256"><defs><style>.cls-1{fill:url(#Degradado_sin_nombre_88);}.cls-2{fill:#eff2fa;}.cls-3{fill:#e4eaf6;}.cls-4{fill:#ff6464;}.cls-5{fill:#d2555a;}.cls-6{fill:#c7cfe2;}.cls-7{fill:#afb9d2;}.cls-8{fill:#d7deed;}.cls-9{fill:#fff;}.cls-10{fill:#707487;}.cls-11{fill:#5b5d6e;}</style><linearGradient id="Degradado_sin_nombre_88" x1="0.5" y1="128" x2="255.5" y2="128" gradientUnits="userSpaceOnUse"><stop offset="0" stop-color="#005ca8"/><stop offset="0.23" stop-color="#0e6eb2"/><stop offset="0.46" stop-color="#197cb9"/><stop offset="0.64" stop-color="#2c93d7"/><stop offset="0.82" stop-color="#3aa3ed"/><stop offset="0.93" stop-color="#3fa9f5"/></linearGradient></defs><title>1</title><path class="cls-1" d="M128,255.5A127.5,127.5,0,1,1,255.5,128,127.64,127.64,0,0,1,128,255.5Zm0-237.12A109.62,109.62,0,1,0,237.62,128,109.75,109.75,0,0,0,128,18.38Z"/><path class="cls-2" d="M191.95,182.66H63.52a4.76,4.76,0,0,1-4.76-4.76V68.5a4.76,4.76,0,0,1,4.76-4.76H191.95a4.76,4.76,0,0,1,4.76,4.76V177.9A4.76,4.76,0,0,1,191.95,182.66Z"/><path class="cls-3" d="M160.65,182.66a38.05,38.05,0,1,0-65.84,0Z"/><path class="cls-4" d="M196.7,87.52H58.76v-19a4.76,4.76,0,0,1,4.76-4.76H191.95a4.76,4.76,0,0,1,4.76,4.76Z"/><rect class="cls-3" x="58.76" y="87.52" width="137.94" height="4.76"/><circle class="cls-5" cx="78.98" cy="74.44" r="7.13"/><path class="cls-6" d="M79,78h0a3.57,3.57,0,0,1-3.57-3.57V62.55A3.57,3.57,0,0,1,79,59h0a3.57,3.57,0,0,1,3.57,3.57V74.44A3.57,3.57,0,0,1,79,78Z"/><path class="cls-7" d="M79,70.88a3.57,3.57,0,0,1-3.57-3.57v7.13a3.57,3.57,0,1,0,7.13,0V67.31A3.57,3.57,0,0,1,79,70.88Z"/><circle class="cls-5" cx="176.49" cy="74.44" r="7.13"/><path class="cls-6" d="M176.49,78h0a3.57,3.57,0,0,1-3.57-3.57V62.55A3.57,3.57,0,0,1,176.49,59h0a3.57,3.57,0,0,1,3.57,3.57V74.44A3.57,3.57,0,0,1,176.49,78Z"/><path class="cls-7" d="M176.49,70.88a3.57,3.57,0,0,1-3.57-3.57v7.13a3.57,3.57,0,1,0,7.13,0V67.31A3.57,3.57,0,0,1,176.49,70.88Z"/><path class="cls-3" d="M84.92,120.82H75.41A2.38,2.38,0,0,1,73,118.44v-7.13a2.38,2.38,0,0,1,2.38-2.38h9.51a2.38,2.38,0,0,1,2.38,2.38v7.13A2.38,2.38,0,0,1,84.92,120.82Z"/><path class="cls-3" d="M103.95,120.82H94.44a2.38,2.38,0,0,1-2.38-2.38v-7.13a2.38,2.38,0,0,1,2.38-2.38h9.51a2.38,2.38,0,0,1,2.38,2.38v7.13A2.38,2.38,0,0,1,103.95,120.82Z"/><path class="cls-3" d="M123,120.82h-9.51a2.38,2.38,0,0,1-2.38-2.38v-7.13a2.38,2.38,0,0,1,2.38-2.38H123a2.38,2.38,0,0,1,2.38,2.38v7.13A2.38,2.38,0,0,1,123,120.82Z"/><path class="cls-3" d="M142,120.82h-9.51a2.38,2.38,0,0,1-2.38-2.38v-7.13a2.38,2.38,0,0,1,2.38-2.38H142a2.38,2.38,0,0,1,2.38,2.38v7.13A2.38,2.38,0,0,1,142,120.82Z"/><path class="cls-8" d="M161,120.82h-9.51a2.38,2.38,0,0,1-2.38-2.38v-7.13a2.38,2.38,0,0,1,2.38-2.38H161a2.38,2.38,0,0,1,2.38,2.38v7.13A2.38,2.38,0,0,1,161,120.82Z"/><path class="cls-8" d="M180.05,120.82h-9.51a2.38,2.38,0,0,1-2.38-2.38v-7.13a2.38,2.38,0,0,1,2.38-2.38h9.51a2.38,2.38,0,0,1,2.38,2.38v7.13A2.38,2.38,0,0,1,180.05,120.82Z"/><path class="cls-6" d="M84.92,104.17H75.41A2.38,2.38,0,0,1,73,101.79h0a2.38,2.38,0,0,1,2.38-2.38h9.51a2.38,2.38,0,0,1,2.38,2.38h0A2.38,2.38,0,0,1,84.92,104.17Z"/><path class="cls-6" d="M103.95,104.17H94.44a2.38,2.38,0,0,1-2.38-2.38h0a2.38,2.38,0,0,1,2.38-2.38h9.51a2.38,2.38,0,0,1,2.38,2.38h0A2.38,2.38,0,0,1,103.95,104.17Z"/><path class="cls-6" d="M123,104.17h-9.51a2.38,2.38,0,0,1-2.38-2.38h0a2.38,2.38,0,0,1,2.38-2.38H123a2.38,2.38,0,0,1,2.38,2.38h0A2.38,2.38,0,0,1,123,104.17Z"/><path class="cls-6" d="M142,104.17h-9.51a2.38,2.38,0,0,1-2.38-2.38h0a2.38,2.38,0,0,1,2.38-2.38H142a2.38,2.38,0,0,1,2.38,2.38h0A2.38,2.38,0,0,1,142,104.17Z"/><path class="cls-4" d="M161,104.17h-9.51a2.38,2.38,0,0,1-2.38-2.38h0a2.38,2.38,0,0,1,2.38-2.38H161a2.38,2.38,0,0,1,2.38,2.38h0A2.38,2.38,0,0,1,161,104.17Z"/><path class="cls-4" d="M180.05,104.17h-9.51a2.38,2.38,0,0,1-2.38-2.38h0a2.38,2.38,0,0,1,2.38-2.38h9.51a2.38,2.38,0,0,1,2.38,2.38h0A2.38,2.38,0,0,1,180.05,104.17Z"/><path class="cls-3" d="M84.92,137.47H75.41A2.38,2.38,0,0,1,73,135.09V128a2.38,2.38,0,0,1,2.38-2.38h9.51A2.38,2.38,0,0,1,87.3,128v7.13A2.38,2.38,0,0,1,84.92,137.47Z"/><path class="cls-3" d="M103.95,137.47H94.44a2.38,2.38,0,0,1-2.38-2.38V128a2.38,2.38,0,0,1,2.38-2.38h9.51a2.38,2.38,0,0,1,2.38,2.38v7.13A2.38,2.38,0,0,1,103.95,137.47Z"/><path class="cls-3" d="M123,137.47h-9.51a2.38,2.38,0,0,1-2.38-2.38V128a2.38,2.38,0,0,1,2.38-2.38H123a2.38,2.38,0,0,1,2.38,2.38v7.13A2.38,2.38,0,0,1,123,137.47Z"/><path class="cls-3" d="M142,137.47h-9.51a2.38,2.38,0,0,1-2.38-2.38V128a2.38,2.38,0,0,1,2.38-2.38H142a2.38,2.38,0,0,1,2.38,2.38v7.13A2.38,2.38,0,0,1,142,137.47Z"/><path class="cls-8" d="M161,137.47h-9.51a2.38,2.38,0,0,1-2.38-2.38V128a2.38,2.38,0,0,1,2.38-2.38H161a2.38,2.38,0,0,1,2.38,2.38v7.13A2.38,2.38,0,0,1,161,137.47Z"/><path class="cls-8" d="M180.05,137.47h-9.51a2.38,2.38,0,0,1-2.38-2.38V128a2.38,2.38,0,0,1,2.38-2.38h9.51a2.38,2.38,0,0,1,2.38,2.38v7.13A2.38,2.38,0,0,1,180.05,137.47Z"/><path class="cls-3" d="M84.92,154.12H75.41A2.38,2.38,0,0,1,73,151.74V144.6a2.38,2.38,0,0,1,2.38-2.38h9.51a2.38,2.38,0,0,1,2.38,2.38v7.13A2.38,2.38,0,0,1,84.92,154.12Z"/><path class="cls-3" d="M103.95,154.12H94.44a2.38,2.38,0,0,1-2.38-2.38V144.6a2.38,2.38,0,0,1,2.38-2.38h9.51a2.38,2.38,0,0,1,2.38,2.38v7.13A2.38,2.38,0,0,1,103.95,154.12Z"/><path class="cls-3" d="M123,154.12h-9.51a2.38,2.38,0,0,1-2.38-2.38V144.6a2.38,2.38,0,0,1,2.38-2.38H123a2.38,2.38,0,0,1,2.38,2.38v7.13A2.38,2.38,0,0,1,123,154.12Z"/><path class="cls-3" d="M142,154.12h-9.51a2.38,2.38,0,0,1-2.38-2.38V144.6a2.38,2.38,0,0,1,2.38-2.38H142a2.38,2.38,0,0,1,2.38,2.38v7.13A2.38,2.38,0,0,1,142,154.12Z"/><path class="cls-8" d="M161,154.12h-9.51a2.38,2.38,0,0,1-2.38-2.38V144.6a2.38,2.38,0,0,1,2.38-2.38H161a2.38,2.38,0,0,1,2.38,2.38v7.13A2.38,2.38,0,0,1,161,154.12Z"/><path class="cls-8" d="M180.05,154.12h-9.51a2.38,2.38,0,0,1-2.38-2.38V144.6a2.38,2.38,0,0,1,2.38-2.38h9.51a2.38,2.38,0,0,1,2.38,2.38v7.13A2.38,2.38,0,0,1,180.05,154.12Z"/><path class="cls-3" d="M84.92,170.76H75.41A2.38,2.38,0,0,1,73,168.39v-7.13a2.38,2.38,0,0,1,2.38-2.38h9.51a2.38,2.38,0,0,1,2.38,2.38v7.13A2.38,2.38,0,0,1,84.92,170.76Z"/><path class="cls-3" d="M103.95,170.76H94.44a2.38,2.38,0,0,1-2.38-2.38v-7.13a2.38,2.38,0,0,1,2.38-2.38h9.51a2.38,2.38,0,0,1,2.38,2.38v7.13A2.38,2.38,0,0,1,103.95,170.76Z"/><path class="cls-3" d="M123,170.76h-9.51a2.38,2.38,0,0,1-2.38-2.38v-7.13a2.38,2.38,0,0,1,2.38-2.38H123a2.38,2.38,0,0,1,2.38,2.38v7.13A2.38,2.38,0,0,1,123,170.76Z"/><path class="cls-3" d="M142,170.76h-9.51a2.38,2.38,0,0,1-2.38-2.38v-7.13a2.38,2.38,0,0,1,2.38-2.38H142a2.38,2.38,0,0,1,2.38,2.38v7.13A2.38,2.38,0,0,1,142,170.76Z"/><path class="cls-8" d="M161,170.76h-9.51a2.38,2.38,0,0,1-2.38-2.38v-7.13a2.38,2.38,0,0,1,2.38-2.38H161a2.38,2.38,0,0,1,2.38,2.38v7.13A2.38,2.38,0,0,1,161,170.76Z"/><path class="cls-8" d="M180.05,170.76h-9.51a2.38,2.38,0,0,1-2.38-2.38v-7.13a2.38,2.38,0,0,1,2.38-2.38h9.51a2.38,2.38,0,0,1,2.38,2.38v7.13A2.38,2.38,0,0,1,180.05,170.76Z"/><circle class="cls-7" cx="127.73" cy="163.63" r="33.3"/><circle class="cls-9" cx="127.73" cy="163.63" r="28.54"/><circle class="cls-2" cx="127.73" cy="163.63" r="16.65"/><path class="cls-10" d="M127.73,132.71h0a2.38,2.38,0,0,0-2.38,2.38v2.38a2.38,2.38,0,0,0,2.38,2.38h0a2.38,2.38,0,0,0,2.38-2.38v-2.38A2.38,2.38,0,0,0,127.73,132.71Z"/><path class="cls-10" d="M127.73,187.41h0a2.38,2.38,0,0,0-2.38,2.38v2.38a2.38,2.38,0,0,0,2.38,2.38h0a2.38,2.38,0,0,0,2.38-2.38v-2.38A2.38,2.38,0,0,0,127.73,187.41Z"/><path class="cls-10" d="M158.65,163.63h0a2.38,2.38,0,0,0-2.38-2.38h-2.38a2.38,2.38,0,0,0-2.38,2.38h0a2.38,2.38,0,0,0,2.38,2.38h2.38A2.38,2.38,0,0,0,158.65,163.63Z"/><path class="cls-10" d="M103.95,163.63h0a2.38,2.38,0,0,0-2.38-2.38H99.19a2.38,2.38,0,0,0-2.38,2.38h0A2.38,2.38,0,0,0,99.19,166h2.38A2.38,2.38,0,0,0,103.95,163.63Z"/><path class="cls-11" d="M127.73,173.14h0a2.38,2.38,0,0,1-2.38-2.38V147a2.38,2.38,0,0,1,2.38-2.38h0a2.38,2.38,0,0,1,2.38,2.38v23.78A2.38,2.38,0,0,1,127.73,173.14Z"/><path class="cls-11" d="M118.22,163.63h0a2.38,2.38,0,0,1,2.38-2.38h23.78a2.38,2.38,0,0,1,2.38,2.38h0a2.38,2.38,0,0,1-2.38,2.38H120.6A2.38,2.38,0,0,1,118.22,163.63Z"/><circle class="cls-6" cx="127.73" cy="163.63" r="4.76"/></svg>