<svg id="Capa_1" data-name="Capa 1" xmlns="http://www.w3.org/2000/svg" xmlns:xlink="http://www.w3.org/1999/xlink" viewBox="0 0 256 256"><defs><style>.cls-1{fill:url(#Degradado_sin_nombre_88);}.cls-2{fill:#c3e678;}.cls-3{fill:#a5d76e;}.cls-4{fill:#fff;}</style><linearGradient id="Degradado_sin_nombre_88" x1="0.53" y1="127.77" x2="256" y2="127.77" gradientUnits="userSpaceOnUse"><stop offset="0" stop-color="#005ca8"/><stop offset="0.23" stop-color="#0e6eb2"/><stop offset="0.46" stop-color="#197cb9"/><stop offset="0.64" stop-color="#2c93d7"/><stop offset="0.82" stop-color="#3aa3ed"/><stop offset="0.93" stop-color="#3fa9f5"/></linearGradient></defs><title>1</title><path class="cls-1" d="M128.27,255.5A127.73,127.73,0,1,1,256,127.77,127.88,127.88,0,0,1,128.27,255.5Zm0-237.56A109.82,109.82,0,1,0,238.09,127.77,110,110,0,0,0,128.27,17.94Z"/><path class="cls-2" d="M128.27,205.14a76.92,76.92,0,1,1,76.92-76.92A77,77,0,0,1,128.27,205.14Z"/><path class="cls-3" d="M164.16,179.5a76.79,76.79,0,0,1-60.67-124,76.87,76.87,0,1,0,85.45,119.85A76.44,76.44,0,0,1,164.16,179.5Z"/><path class="cls-4" d="M112.35,168a5.29,5.29,0,0,1-3.75-1.55L76.77,134.63a5.3,5.3,0,0,1,7.5-7.5l28.08,28.08L167,100.6a5.3,5.3,0,1,1,7.5,7.5L116.1,166.45A5.29,5.29,0,0,1,112.35,168Z"/></svg>