<svg id="Capa_1" data-name="Capa 1" xmlns="http://www.w3.org/2000/svg" xmlns:xlink="http://www.w3.org/1999/xlink" viewBox="0 0 1445 814"><defs><style>.cls-1,.cls-2{fill:#005ca8;}.cls-1{opacity:0.34;}.cls-2{opacity:0.37;}.cls-3{fill:url(#Degradado_sin_nombre_6);}</style><linearGradient id="Degradado_sin_nombre_6" x1="0.42" y1="498.67" x2="1448.76" y2="498.67" gradientUnits="userSpaceOnUse"><stop offset="0" stop-color="#005ca8"/><stop offset="1" stop-color="#0876c1"/></linearGradient></defs><title>POSTALMATE_backgorund and forms</title><path class="cls-1" d="M.42,54.11S32.81,112.37,71,146.52s88.39,82.36,212.26,123.2,317.39,36.16,317.39,36.16,209.58-9.37,357.56-37.5,371-87,371-87,106.63-33.48,117.6-37.5l.58,191.17H-1Z"/><path class="cls-2" d="M.42,95s56.5,79.8,108.72,109.54,71.31,46.81,179.12,78.28,269.51,31.47,269.51,31.47,157.35-2,250.09-11,247.75-26.11,247.75-26.11,227.66-35.15,243.4-37.16,147.73-28.79,147.73-28.79V419.79H.42Z"/><path class="cls-3" d="M.42,304.49V181.33s43.1,42.09,166.31,73S423.86,290,423.86,290s110.48,3.73,180.12,3.73,306.67-10.12,306.67-10.12S1173.13,266,1220,262.31s208.91-18.65,208.91-18.65l18.75-2.13,1.1,574.47H.42Z"/></svg>