<svg xmlns="http://www.w3.org/2000/svg" width="1445.41" height="869" viewBox="0 0 1445.41 869"><g transform="translate(-1 -144)"><path d="M124.67,276.111c153.56,41.522,391.21,29.233,491.54,25.017,113.93-4.8,409.6-45.636,471.91-58.544,69.28-14.352,332-77.487,358.27-83.819V144H1v87.365c.84.9,2.06,2.166,3.69,3.765C31.18,249.934,124.67,276.111,124.67,276.111Z" fill="none"/><path d="M748.81,633.3C449.12,655.662,1.26,738.694,1.26,738.694l-.08-31.348H1.1l.16,66.5S98.67,756.257,147,749.9s400-55.888,447-60.685,267.5-22.373,267.5-22.373,466.7-23.147,584.89,18.582V649.317c-3.13-.683-18.73-3.985-45.21-8.524C1283.28,632.631,984,615.79,748.81,633.3Z" transform="translate(0 239.154)" fill="#005ca8" opacity="0.48"/><path d="M616.21,297.807c-100.32,4.217-338,16.506-491.54-25.017,0,0-93.49-26.177-120-40.981C17,243.841,52.57,274,122.92,302.088c98.12,31.464,251.34,64.411,451,57.293,366.06-13.024,725.94-78.338,872.45-127.83V155.47c-26.23,6.306-289,69.44-358.27,83.819C1025.81,252.158,730.14,293.01,616.21,297.807Z" transform="translate(0 3.321)" fill="#005ca8" opacity="0.48"/><path d="M1,657.25v40.942h.1Z" transform="translate(0 248.307)" fill="#005ca8"/><path d="M1446.39,645.839v-5.158c-7.86-.619-23.45-1.805-45.21-3.3C1427.65,641.842,1443.26,645.156,1446.39,645.839Z" transform="translate(0 242.555)" fill="#005ca8"/><path d="M1.18,704.961,1,633.87v30.149l.1,40.942Z" transform="translate(0 241.539)" fill="#005ca8"/><path d="M1,211.75v1.457a37.476,37.476,0,0,0,3.69,2.308C3.06,213.916,1.84,212.653,1,211.75Z" transform="translate(0 19.615)" fill="#005ca8" opacity="0.41"/><path d="M748.81,637.927c235.21-17.55,534.47-.671,652.37,7.415-95-16.274-330.18-48.254-631.2-30.445C488.63,631.544,46.5,704.4,1.18,711.971l.08,31.374S449.12,660.287,748.81,637.927Z" transform="translate(0 234.528)" fill="#005ca8" opacity="0.48"/><path d="M748.81,637.927c235.21-17.55,534.47-.671,652.37,7.415-95-16.274-330.18-48.254-631.2-30.445C488.63,631.544,46.5,704.4,1.18,711.971l.08,31.374S449.12,660.287,748.81,637.927Z" transform="translate(0 234.528)" fill="#005ca8" opacity="0.41"/><path d="M4.69,215.175C3.25,214.324,2,213.6,1,212.88v23.031c12,6.448,53.59,27.647,121.92,49.569C52.57,257.381,17,227.219,4.69,215.175Z" transform="translate(0 19.942)" fill="#005ca8" opacity="0.48"/><path d="M4.69,215.175C3.25,214.324,2,213.6,1,212.88v23.031c12,6.448,53.59,27.647,121.92,49.569C52.57,257.381,17,227.219,4.69,215.175Z" transform="translate(0 19.942)" fill="#005ca8" opacity="0.41"/><path d="M770,807.932c301-20.828,536.16,16.578,631.2,35.583,21.76,1.748,37.35,3.135,45.21,3.858v-1.884c-91.1-38.1-1225.27-512.552-1316.78-553.741-2.27-1.025-4.5-2.05-6.71-3.014C54.59,263.052,13,238.291,1,230.74V838.3l.18,83.087C46.5,912.54,488.63,827.389,770,807.932Z" transform="translate(0 25.113)" fill="#005ca8"/><path d="M573.94,377.465c-199.68,9.059-352.89-32.883-451-73.05C54.59,276.465,13,249.451,1,241.214V904.021l.18,90.642C46.5,985.012,488.63,892.118,770,870.892c301-22.722,536.16,18.086,631.2,38.818,21.76,1.907,37.35,3.42,45.21,4.209V214.48C1299.88,277.566,940,360.843,573.94,377.465Z" transform="translate(0 -16.79)" fill="#005ca8"/></g></svg>