<svg id="Capa_1" data-name="Capa 1" xmlns="http://www.w3.org/2000/svg" viewBox="0 0 174 549"><defs><style>.cls-1{opacity:0.5;}.cls-2,.cls-3,.cls-4{fill:#fff;}.cls-2,.cls-3{stroke:#fff;}.cls-2{stroke-width:0.56px;}.cls-3{stroke-width:1.12px;}</style></defs><title>logo</title><g class="cls-1"><path class="cls-2" d="M119.51,492.94,63.93,481.19v-19c0-12.91,2.94-18.79,16.47-15.93s16.47,10,16.47,22.88v10L119.51,484ZM70.73,473.61l19.41,4.17V467.73c0-8.66-1.86-10.28-9.74-12s-9.66-.85-9.66,7.81Z"/><path class="cls-2" d="M120.31,428.78c0,12.79-4.44,18-18,15L89,441c-13.45-2.85-18-9.94-18-22.72v-.46c0-12.79,4.5-17.82,18-15l13.31,2.78c13.52,2.92,18,9.87,18,22.66Zm-5.83-1.26v-.46c0-9.94-4.64-11.73-14.31-13.78l-8.94-1.86c-9.67-2.05-14.31-2.25-14.31,7.68v.46c0,9.94,4.64,11.73,14.31,13.78l8.94,1.85C109.84,437.25,114.48,437.45,114.48,427.52Z"/><path class="cls-2" d="M120.24,389.62a25,25,0,0,1-2.72,12l-6.16-2.38a29.76,29.76,0,0,0,3-11.92c0-4.31-1.79-8.08-5.17-8.75-4.5-1-7.22,1.72-13.32,7.82-3.77,3.78-7.95,7.09-14,5.83-8-1.72-10.86-10.2-10.86-17.88a28.05,28.05,0,0,1,2.12-10.4l5.43,2.32-.6,2.05a33.75,33.75,0,0,0-1.13,7.09c0,3.91,1.06,8.08,4.71,8.88,4.37.93,6.89-1.72,13.25-8,3.77-3.71,8.08-6.89,14-5.63C116.93,372.33,120.24,381.07,120.24,389.62Z"/><path class="cls-2" d="M119.32,351.65l-41.8-8.88v13.87l-5.83-.89V319.59l5.83,1.19V335l41.8,8.88Z"/><path class="cls-2" d="M71.89,299.91l47.63-4.64v8.21l-15.37,1.06v11.53l15.37,7.62v8.21L71.89,307Zm26.5,13.38V305l-14.51,1.06Z"/><path class="cls-2" d="M119.51,288.64,71.89,278.57v-7.69l41.8,8.88V256.25l5.83,1.19Z"/><path class="cls-2" d="M71.89,158.69l47.63-4.64v8.22l-15.37,1.06v11.53l15.37,7.62v8.21L71.89,165.78Zm26.5,13.38v-8.28l-14.51,1.06Z"/><path class="cls-2" d="M119.51,141.53l-41.8-8.88v14.18l-5.83-1.19V109.47l5.83,1.19V124.9l41.8,8.88Z"/><path class="cls-2" d="M71.89,103.83V74.68l5.83,1.19v21.4l14.64,3.11V79.72L98.18,81v20.67l15.5,3.31V83.56l5.83,1.19V113.9Z"/><path class="cls-3" d="M94.8,201.21c-7.73-1.14-17-2.52-23.94-4v.23c6.5,3,13.49,6.51,21.06,10.56l26.9,14.28v5l-26.41,3c-7.82.88-15,1.51-21.55,1.65v.15c6.91,1.51,16.2,3.72,24.51,5.81l23.77,6v6.27L63.71,235.79v-8.38L90.52,224c6.83-.77,12.92-1.31,18.67-1.46v-.23c-5.59-2.38-11.68-5.39-18.67-9L63.71,198.94v-8.38l55.44,7.74v6.42Z"/><path class="cls-4" d="M53.69,64.11a8.2,8.2,0,0,1,1-4,7.48,7.48,0,0,1,3-3,8.06,8.06,0,0,1,8.06,0,7.59,7.59,0,0,1,3,3,8.07,8.07,0,0,1,0,8,7.59,7.59,0,0,1-3,3,8.08,8.08,0,0,1-8.06,0,7.48,7.48,0,0,1-3-3A8.2,8.2,0,0,1,53.69,64.11Zm1.58,0a6.57,6.57,0,0,0,.83,3.19,6,6,0,0,0,2.39,2.4,6.51,6.51,0,0,0,6.49,0,6.13,6.13,0,0,0,2.4-2.39,6.44,6.44,0,0,0,0-6.44A6.17,6.17,0,0,0,65,58.49a6.48,6.48,0,0,0-6.49,0,6,6,0,0,0-2.39,2.41A6.59,6.59,0,0,0,55.27,64.1Zm10.79,3.65H57.51V66q0-2.44,0-2.73a3.36,3.36,0,0,1,.34-1.34,2.14,2.14,0,0,1,.82-.8,2.39,2.39,0,0,1,1.22-.32,2.26,2.26,0,0,1,1.58.61,2.75,2.75,0,0,1,.81,1.7,2.14,2.14,0,0,1,.32-.6,4.29,4.29,0,0,1,.66-.58q.13-.09,1-.63l1.72-1v2.14l-1.39.71a5.78,5.78,0,0,0-1.76,1.2,1.91,1.91,0,0,0-.36,1.2V66h3.51ZM61.2,66v-.7a8.56,8.56,0,0,0-.12-1.86,1.1,1.1,0,0,0-.4-.57,1.09,1.09,0,0,0-.66-.21,1,1,0,0,0-.64.21,1.12,1.12,0,0,0-.4.58,8.3,8.3,0,0,0-.12,1.86V66Z"/></g></svg>