<svg id="Capa_1" data-name="Capa 1" xmlns="http://www.w3.org/2000/svg" xmlns:xlink="http://www.w3.org/1999/xlink" viewBox="0 0 256 256"><defs><style>.cls-1{fill:url(#Degradado_sin_nombre_6);}.cls-2{fill:#fff;}</style><linearGradient id="Degradado_sin_nombre_6" x1="1.16" y1="128.58" x2="256" y2="128.58" gradientUnits="userSpaceOnUse"><stop offset="0" stop-color="#005ca8"/><stop offset="1" stop-color="#0876c1"/></linearGradient></defs><title>1</title><circle class="cls-1" cx="128.58" cy="128.58" r="127.42"/><path class="cls-2" d="M123.55,144.77q0,10.33-6.7,17t-17,6.7a24,24,0,0,1-16.88-6.28q-6.84-6.28-6.84-17.44,0-8.37,6.42-19l22.33-37.12h23.72l-14.51,37.12Q123.55,132.48,123.55,144.77Zm52.47,0q0,10.33-6.7,17t-17,6.7a24,24,0,0,1-16.88-6.28q-6.84-6.28-6.84-17.44,0-8.37,6.42-19l22.33-37.12H181l-14.51,37.12Q176,132.48,176,144.77Z"/></svg>