<?xml version="1.0" encoding="UTF-8"?>
<svg width="493px" height="512px" viewBox="0 0 493 512" version="1.1" xmlns="http://www.w3.org/2000/svg" xmlns:xlink="http://www.w3.org/1999/xlink">
    <!-- Generator: Sketch 53.2 (72643) - https://sketchapp.com -->
    <title>search</title>
    <desc>Created with Sketch.</desc>
    <g id="Page-1" stroke="none" stroke-width="1" fill="none" fill-rule="evenodd">
        <g id="search" fill="#707070" fill-rule="nonzero">
            <path d="M491.295516,495.634482 L347.657649,346.256844 C384.294537,309.514179 406.992007,258.861307 406.992007,202.99815 C406.992007,91.05917 315.931458,0 203.990782,0 C92.050107,0 0.989557562,91.05917 0.989557562,202.99815 C0.989557562,314.937129 92.050107,405.9963 203.990782,405.9963 C253.126746,405.9963 298.222018,388.432126 333.37023,359.287392 L477.356098,509.03236 C479.250776,511.014009 481.783458,512 484.325807,512 C486.742488,512 489.149503,511.101008 491.024848,509.303025 C494.872204,505.600725 494.988205,499.481781 491.295516,495.634482 Z M203.489558,386 C102.303794,386 19.9895576,303.685763 19.9895576,202.5 C19.9895576,101.314237 102.303794,19 203.489558,19 C304.675321,19 386.989558,101.314237 386.989558,202.5 C386.989558,303.685763 304.665663,386 203.489558,386 Z" id="Shape" transform="translate(246.994779, 256.000000) scale(-1, 1) translate(-246.994779, -256.000000) "></path>
        </g>
    </g>
</svg>