<svg id="Capa_1" data-name="Capa 1" xmlns="http://www.w3.org/2000/svg" viewBox="0 0 256 256"><defs><style>.cls-1{fill:#6fbb84;}.cls-2{fill:#afb0b4;}.cls-3{fill:#88898e;}.cls-4{fill:#cf442b;}.cls-5{fill:#ebebec;}.cls-6{fill:#d7d8d9;}.cls-7{fill:#f58f6c;}.cls-8{fill:#f07b52;}.cls-9{fill:#fdd042;}.cls-10{fill:#e1a527;}.cls-11{fill:#606268;}.cls-12{fill:#b83c26;}</style></defs><title>1</title><rect class="cls-1" x="37.6" y="38.09" width="180.52" height="180.52" transform="translate(309.03 128.7) rotate(135)"/><path class="cls-2" d="M161.76,156.09H143.27a3.08,3.08,0,0,0-3.08,3.08v58.56a3.08,3.08,0,0,0,3.08,3.08h18.49a3.08,3.08,0,0,0,3.08-3.08V159.17A3.08,3.08,0,0,0,161.76,156.09Z"/><path class="cls-3" d="M143.27,156.09H112.45a3.08,3.08,0,0,0-3.08,3.08v58.56a3.08,3.08,0,0,0,3.08,3.08h30.82a3.08,3.08,0,0,0,3.08-3.08V159.17A3.08,3.08,0,0,0,143.27,156.09Z"/><path class="cls-4" d="M192.58,66.71H87.8A27.77,27.77,0,0,0,60.06,94.45v64.72a3.08,3.08,0,0,0,3.08,3.08h154.1a3.08,3.08,0,0,0,3.08-3.08V94.45A27.77,27.77,0,0,0,192.58,66.71Z"/><path class="cls-5" d="M130.94,94.45H38.48a3.08,3.08,0,0,0-3.08,3.08v61.64a3.08,3.08,0,0,0,3.08,3.08h92.46a3.08,3.08,0,0,0,3.08-3.08V97.53A3.08,3.08,0,0,0,130.94,94.45Z"/><path class="cls-6" d="M86.64,146.17,134,108.7v-8.09H35.4v8.09l47.39,37.47A3.11,3.11,0,0,0,86.64,146.17Z"/><path class="cls-5" d="M133.85,96.51a3.08,3.08,0,0,0-2.91-2.06H38.48a3.08,3.08,0,0,0-1.93,5.49l46.23,37a3.11,3.11,0,0,0,3.85,0l46.23-37A3.08,3.08,0,0,0,133.85,96.51Z"/><path class="cls-7" d="M51.74,208.49h61.43a3.08,3.08,0,0,0,3-2.29l11.72-43.94H60.06L48.76,204.61A3.08,3.08,0,0,0,51.74,208.49Z"/><path class="cls-8" d="M192.58,66.71H100.12a27.77,27.77,0,0,1,27.74,27.74v67.81h89.38a3.08,3.08,0,0,0,3.08-3.08V94.45A27.77,27.77,0,0,0,192.58,66.71Z"/><circle class="cls-9" cx="174.09" cy="100.61" r="15.41"/><circle class="cls-10" cx="174.09" cy="100.61" r="9.25"/><path class="cls-11" d="M174.09,103.7a3.08,3.08,0,0,1-3.08-3.08V39a3.08,3.08,0,1,1,6.16,0v61.64A3.08,3.08,0,0,1,174.09,103.7Z"/><path class="cls-12" d="M189.5,149.93H149.44a3.08,3.08,0,0,1,0-6.16H189.5a3.08,3.08,0,0,1,0,6.16Z"/><path class="cls-12" d="M204.91,149.93h-6.16a3.08,3.08,0,1,1,0-6.16h6.16a3.08,3.08,0,1,1,0,6.16Z"/></svg>