<svg id="Capa_1" data-name="Capa 1" xmlns="http://www.w3.org/2000/svg" viewBox="0 0 256 256"><defs><style>.cls-1{fill:#6fbb84;}.cls-2{fill:#08469c;}.cls-3{fill:#e1e1e4;}.cls-4{fill:#4dbbeb;}.cls-5{fill:#095c92;}.cls-6{fill:#d9d8db;}.cls-7{fill:#fec478;}.cls-8{fill:#0d70b2;}.cls-9{fill:#10bb67;}.cls-10{fill:#c8c6cd;}</style></defs><title>1</title><rect class="cls-1" x="37.49" y="37.49" width="181.02" height="181.02" transform="translate(309.02 128) rotate(135)"/><path class="cls-2" d="M181.94,58H160.5a5.31,5.31,0,0,0-5.36,5.36V85.49a5.31,5.31,0,0,0,5.36,5.36h21.43a5.31,5.31,0,0,0,5.36-5.36V63.35A5.31,5.31,0,0,0,181.94,58Z"/><path class="cls-3" d="M218.91,165.86l-9-71.58a16.09,16.09,0,0,0-16-14.14h-76.3a5.31,5.31,0,0,0-5.36,5.36v16.07H90.14V85.49a5.31,5.31,0,0,0-5.36-5.36H62.06a16.09,16.09,0,0,0-16,14.14L37.2,165.86l-.64,4.71V171a5.3,5.3,0,0,0,5.36,5.57H214.08a5.3,5.3,0,0,0,5.36-5.57v-.43Z"/><rect class="cls-4" x="139.07" y="41.92" width="64.29" height="21.43"/><path class="cls-5" d="M203.37,36.56H139.07a5.31,5.31,0,0,0-5.36,5.36V63.35a5.31,5.31,0,0,0,5.36,5.36h64.29a5.31,5.31,0,0,0,5.36-5.36V41.92A5.31,5.31,0,0,0,203.37,36.56ZM198,58H144.43V47.27H198Z"/><path class="cls-6" d="M219.44,170.58V171a5.3,5.3,0,0,1-5.36,5.57H128.36V80.14h65.58a16.09,16.09,0,0,1,16,14.14l9,71.58Z"/><path class="cls-5" d="M218.91,165.86H37.2l-.64,4.71v32.79a16.05,16.05,0,0,0,16.07,16.07H203.37a16.05,16.05,0,0,0,16.07-16.07V170.58Z"/><path class="cls-2" d="M219.44,170.58v32.79a16.05,16.05,0,0,1-16.07,16.07h-75V165.86h90.55Z"/><path class="cls-7" d="M123,106.71V52.63a5.31,5.31,0,0,0-5.36-5.36H84.78a5.31,5.31,0,0,0-5.36,5.36v54.08Z"/><path class="cls-5" d="M181.94,155.15H149.79c-7.06,0-7.09-10.72,0-10.72h32.15C189,144.43,189,155.15,181.94,155.15Z"/><path class="cls-8" d="M89,155.15h-15c-7.06,0-7.09-10.72,0-10.72H89C96.08,144.43,96.11,155.15,89,155.15Z"/><path class="cls-8" d="M89,133.72h-15C67,133.72,67,123,74.06,123H89C96.08,123,96.11,133.72,89,133.72Z"/><path class="cls-8" d="M128.36,133.72H112.71c-7.07,0-7.07-10.72,0-10.72h15.64C135.43,123,135.43,133.72,128.36,133.72Z"/><path class="cls-8" d="M128.36,155.15H113.46c-7.07,0-7.07-10.72,0-10.72h14.89C135.43,144.43,135.43,155.15,128.36,155.15Z"/><path class="cls-5" d="M128.36,155.15V144.43C135.43,144.43,135.43,155.15,128.36,155.15Z"/><path class="cls-5" d="M128.36,133.72V123C135.43,123,135.43,133.72,128.36,133.72Z"/><path class="cls-3" d="M139.07,198H117.64c-7.07,0-7.07-10.72,0-10.72h21.43C146.14,187.29,146.14,198,139.07,198Z"/><path class="cls-6" d="M139.07,198H128.36V187.29h10.72C146.14,187.29,146.14,198,139.07,198Z"/><path class="cls-6" d="M128.36,112.28H74.06c-7.07,0-7.07-10.72,0-10.72h54.29C135.43,101.57,135.43,112.28,128.36,112.28Z"/><path class="cls-9" d="M187.29,128.36a5.35,5.35,0,0,1-5.36,5.36H149.79a5.35,5.35,0,0,1-5.36-5.36V106.93a5.35,5.35,0,0,1,5.36-5.36h32.15a5.35,5.35,0,0,1,5.36,5.36Z"/><path class="cls-10" d="M128.36,112.28V101.57C135.43,101.57,135.43,112.28,128.36,112.28Z"/></svg>