<svg id="Capa_1" data-name="Capa 1" xmlns="http://www.w3.org/2000/svg" viewBox="0 0 256 256"><defs><style>.cls-1{fill:#6fbb84;}.cls-2{fill:#fea832;}.cls-3{fill:#fe9923;}.cls-4{fill:#fcbf29;}.cls-5{fill:#fedb41;}.cls-6{fill:#fe8821;}</style></defs><title>1</title><rect class="cls-1" x="37.84" y="37.84" width="180.31" height="180.31" transform="translate(309.02 128) rotate(135)"/><path class="cls-2" d="M194.66,124.62v65.26a5,5,0,0,1-3.49,4.82l-61.54,20.51c-.2.1-.31.1-.51.21a6.26,6.26,0,0,1-2.26,0c-.1-.1-.31-.1-.51-.21L64.82,194.7a5,5,0,0,1-3.49-4.82V124.62a5.08,5.08,0,0,1,5.13-5.13H189.54A5.08,5.08,0,0,1,194.66,124.62Z"/><path class="cls-3" d="M194.66,102.36l-39.1-2.56-29.68-5.19L128,81.85l20.73-38.53a5.13,5.13,0,0,1,6.09-2.61l57.07,17.8A5.13,5.13,0,0,1,215,65.7Z"/><path class="cls-4" d="M61.34,102.36l39.1-2.56,12.18-3,15.38-15L107.27,43.32a5.13,5.13,0,0,0-6.09-2.61L44.1,58.51A5.13,5.13,0,0,0,41,65.7Z"/><path class="cls-3" d="M194.66,124.62v65.26a5,5,0,0,1-3.49,4.82l-61.54,20.51c-.2.1-.31.1-.51.21a4.21,4.21,0,0,1-1.13.1v-96h61.54A5.08,5.08,0,0,1,194.66,124.62Z"/><path class="cls-4" d="M211.9,135.52l-59.73,18.92a5.13,5.13,0,0,1-5.77-2.06L128,122.87l10.21-13.4,35.94-4,20.51-3.16,20,25.42A5.13,5.13,0,0,1,211.9,135.52Z"/><path class="cls-5" d="M44.1,135.52,103.83,154a5.13,5.13,0,0,0,5.77-2.06L128,122.87,116.88,109.2,83.6,106.06l-22.27-3.7-20,25.42A5.13,5.13,0,0,0,44.1,135.52Z"/><polygon class="cls-2" points="194.66 102.36 128 122.87 61.34 102.36 128 81.85 194.66 102.36"/><polygon class="cls-6" points="194.66 102.36 128 122.87 128 81.85 194.66 102.36"/></svg>