<svg id="Capa_1" data-name="Capa 1" xmlns="http://www.w3.org/2000/svg" viewBox="0 0 586.86 257.29"><defs><style>.cls-1{fill:#6fbb84;}.cls-2,.cls-5,.cls-6{fill:#1d1d1b;}.cls-3{fill:#005ca8;fill-rule:evenodd;}.cls-4{fill:#fff;stroke:#fff;}.cls-4,.cls-5{stroke-width:0.5px;}.cls-5,.cls-6{stroke:#1d1d1b;}</style></defs><title>1</title><path class="cls-1" d="M108.84,203.68l13.48,7.42-.13,0C36.52,222.85,0,239.95,0,239.95s27.69-21.2,108.66-36.23Z"/><path class="cls-1" d="M322.09,200.42h-.24l22.24-10.92s0,0,.13,0c188.38,6.61,242.64,50.28,242.64,50.28S498,203.58,322.09,200.42Z"/><polygon class="cls-2" points="85.69 54.35 230.31 115.65 380.81 47.94 239.47 0 85.69 54.35"/><polygon class="cls-3" points="206.46 257.29 230.31 115.65 85.69 54.35 62.88 178.41 206.46 257.29"/><path class="cls-4" d="M75.56,170.27l13.3-62.89h21.52c14.61,0,21.25,3.32,18,18.63s-11.29,18.63-25.89,18.63H91.13l-5.42,25.63Zm21.87-55.19-4.72,22h11.37c9.79,0,11.63-2.1,13.56-11s1-10.93-8.83-10.93Z"/><path class="cls-4" d="M148.16,171.17c-14.47,0-20.31-5-17-20.31l3.15-15.06c3.22-15.22,11.24-20.31,25.71-20.31h.52c14.47,0,20.16,5.1,16.94,20.31l-3.15,15.06c-3.3,15.29-11.17,20.31-25.63,20.31Zm1.42-6.6h.53c11.24,0,13.27-5.25,15.59-16.19l2.1-10.12c2.32-10.94,2.55-16.19-8.69-16.19h-.52c-11.25,0-13.27,5.25-15.59,16.19l-2.1,10.12C138.56,159.33,138.34,164.58,149.58,164.58Z"/><path class="cls-4" d="M192.46,171.1A28.34,28.34,0,0,1,178.89,168l2.7-7a33.67,33.67,0,0,0,13.49,3.45c4.87,0,9.15-2,9.9-5.85,1.12-5.1-2-8.17-8.84-15.07-4.27-4.27-8-9-6.6-15.81,1.95-9.07,11.54-12.29,20.23-12.29a31.74,31.74,0,0,1,11.77,2.4L218.92,124l-2.32-.68a38.18,38.18,0,0,0-8-1.27c-4.42,0-9.14,1.2-10,5.32-1,4.95,1.95,7.79,9.07,15,4.2,4.27,7.79,9.14,6.37,15.89C212,167.35,202.13,171.1,192.46,171.1Z"/><path class="cls-5" d="M235.42,170l10-47.29H229.77l1-6.6h40.92l-1.35,6.59H254.23l-10,47.29Z"/><path class="cls-5" d="M294,116.38l5.25,53.89h-9.29l-1.2-17.39h-13l-8.62,17.39h-9.29l28.18-53.89Zm-15.14,30h9.37L287,129.95Z"/><path class="cls-5" d="M306.71,170.27l11.39-53.89h8.7l-10,47.29h26.61L342,170.27Z"/><path class="cls-5" d="M453.74,116.38,459,170.27h-9.29l-1.2-17.39h-13l-8.62,17.39h-9.29l28.18-53.89Zm-15.14,30H448l-1.2-16.41Z"/><path class="cls-5" d="M473.16,170.27l10-47.29h-16l1.35-6.59h40.92L508.08,123H492l-10,47.29Z"/><path class="cls-5" d="M515.81,116.38h33L547.44,123H523.23l-3.52,16.56h23.39l-1.42,6.6H518.28l-3.75,17.54h24.21l-1.35,6.59h-33Z"/><path class="cls-6" d="M405.64,142.31c1.29-8.75,2.85-19.27,4.48-27.08h-.26c-3.41,7.35-7.36,15.26-12,23.83l-16.16,30.44h-5.64l-3.43-29.88c-1-8.84-1.71-16.94-1.86-24.38h-.17c-1.71,7.82-4.21,18.33-6.57,27.74l-6.83,26.9h-7.09l16.36-62.73H376l3.85,30.34c.87,7.72,1.48,14.61,1.65,21.13h.26c2.7-6.33,6.1-13.22,10.22-21.13l16.23-30.34h9.48l-8.76,62.73h-7.26Z"/><path class="cls-2" d="M560.74,95.8a9.28,9.28,0,0,1,4.5,1.17,8.46,8.46,0,0,1,3.38,3.36,9.12,9.12,0,0,1,0,9.12,8.59,8.59,0,0,1-3.37,3.37,9.13,9.13,0,0,1-9.08,0,8.59,8.59,0,0,1-3.37-3.37,9.15,9.15,0,0,1,0-9.12A8.47,8.47,0,0,1,556.25,97,9.28,9.28,0,0,1,560.74,95.8Zm0,1.78a7.43,7.43,0,0,0-3.6.94,6.83,6.83,0,0,0-2.72,2.7,7.37,7.37,0,0,0,0,7.34,6.93,6.93,0,0,0,2.71,2.71,7.29,7.29,0,0,0,7.28,0,7,7,0,0,0,2.71-2.71,7.33,7.33,0,0,0,0-7.34,6.81,6.81,0,0,0-2.72-2.7A7.46,7.46,0,0,0,560.76,97.58Zm-4.13,12.21v-9.67h2q2.76,0,3.09,0a3.8,3.8,0,0,1,1.51.39,2.42,2.42,0,0,1,.9.93,2.71,2.71,0,0,1,.36,1.39,2.55,2.55,0,0,1-.69,1.79,3.11,3.11,0,0,1-1.92.92,2.42,2.42,0,0,1,.68.36,4.85,4.85,0,0,1,.65.74q.11.14.71,1.18l1.14,2h-2.43l-.81-1.57a6.54,6.54,0,0,0-1.36-2,2.16,2.16,0,0,0-1.36-.41h-.51v4Zm2-5.5h.8a9.68,9.68,0,0,0,2.11-.13,1.25,1.25,0,0,0,.65-.46,1.23,1.23,0,0,0,.24-.74,1.19,1.19,0,0,0-.23-.72,1.27,1.27,0,0,0-.66-.45,9.39,9.39,0,0,0-2.11-.14h-.8Z"/></svg>