<svg id="Capa_1" data-name="Capa 1" xmlns="http://www.w3.org/2000/svg" xmlns:xlink="http://www.w3.org/1999/xlink" viewBox="0 0 256 256"><defs><style>.cls-1{fill:none;}.cls-2{clip-path:url(#clip-path);}.cls-3{fill:#f9cd74;}.cls-4{fill:#eb9850;}.cls-5{fill:#f9b659;}.cls-6{fill:#6b968b;}.cls-7{fill:#608778;}.cls-8{fill:#a8c4cd;}.cls-9{fill:#f2c09a;}.cls-10{fill:#e9937c;}.cls-11{fill:url(#Degradado_sin_nombre_88);}</style><clipPath id="clip-path"><circle class="cls-1" cx="129.31" cy="123.35" r="120.39"/></clipPath><linearGradient id="Degradado_sin_nombre_88" x1="0.44" y1="127.87" x2="255.6" y2="127.87" gradientUnits="userSpaceOnUse"><stop offset="0" stop-color="#005ca8"/><stop offset="0.23" stop-color="#0e6eb2"/><stop offset="0.46" stop-color="#197cb9"/><stop offset="0.64" stop-color="#2c93d7"/><stop offset="0.82" stop-color="#3aa3ed"/><stop offset="0.93" stop-color="#3fa9f5"/></linearGradient></defs><title>New landing icons</title><g class="cls-2"><polygon class="cls-3" points="124.92 156.55 55.8 134.55 55.8 59.15 124.92 37.16 194.04 59.15 194.04 134.55 124.92 156.55"/><polygon class="cls-4" points="124.92 156.55 124.92 81.14 194.04 59.15 194.04 134.55 124.92 156.55"/><polygon class="cls-5" points="124.92 81.14 55.8 59.15 124.92 37.16 194.04 59.15 124.92 81.14"/><polygon class="cls-6" points="79.89 51.49 149.01 73.48 149.01 98.61 156.34 96.28 165.77 93.28 171.53 91.45 171.53 66.31 102.41 44.32 79.89 51.49"/><polygon class="cls-7" points="149.01 73.48 149.01 98.61 156.34 96.28 165.77 93.28 171.53 91.45 171.53 66.31 149.01 73.48"/><rect class="cls-8" x="52.66" y="162.83" width="25.13" height="43.99"/><rect class="cls-6" x="-25.47" y="165.97" width="78.13" height="37.7"/><path class="cls-9" d="M77.8,200.91l27.78,11.54a51.33,51.33,0,0,0,37.68.41l48.53-18.51a8.48,8.48,0,0,0,4.82-11l0-.06h0a8.26,8.26,0,0,0-10.67-4.76l-.23.09L159.41,189.8a16.25,16.25,0,0,1-4.54,1.12,7.85,7.85,0,0,0-1.67-15.52H128.83a19,19,0,0,1-8.51-2A70.24,70.24,0,0,0,88.9,166H77.8v34.94Z"/><path class="cls-10" d="M120.33,173.37a19,19,0,0,0,8.5,2H153.2a7.85,7.85,0,0,1,7.85,7.85,7.77,7.77,0,0,1-.67,3.12,7.85,7.85,0,0,0-7.18-4.69H128.84a19,19,0,0,1-8.5-2,70.24,70.24,0,0,0-31.42-7.42H77.8V166H88.91A70.24,70.24,0,0,1,120.33,173.37Z"/><path class="cls-10" d="M196.6,183.29h0a8.51,8.51,0,0,1,0,6.26,8.26,8.26,0,0,0-10.69-4.7l-.2.08-26.27,11.15a16.39,16.39,0,0,1-6.41,1.31H115.5v-6.3H153a16.39,16.39,0,0,0,6.41-1.3l26.27-11.15a8.26,8.26,0,0,1,10.81,4.42Z"/><path class="cls-4" d="M68.37,128.27a3.14,3.14,0,0,1-3.14-3.14V115.7a3.14,3.14,0,0,1,6.28,0v9.43A3.14,3.14,0,0,1,68.37,128.27Z"/><path class="cls-4" d="M80.94,131.41a3.14,3.14,0,0,1-3.14-3.14v-9.43a3.14,3.14,0,0,1,6.28,0v9.43A3.14,3.14,0,0,1,80.94,131.41Z"/></g><path class="cls-11" d="M128,255.45A127.58,127.58,0,1,1,255.6,127.87,127.73,127.73,0,0,1,128,255.45Zm0-240.77A113.19,113.19,0,1,0,241.21,127.87,113.32,113.32,0,0,0,128,14.67Z"/></svg>