<svg id="Capa_1" data-name="Capa 1" xmlns="http://www.w3.org/2000/svg" xmlns:xlink="http://www.w3.org/1999/xlink" viewBox="0 0 256 256"><defs><style>.cls-1{fill:url(#Degradado_sin_nombre_88);}.cls-2{fill:#fea832;}.cls-3{fill:#fe9923;}.cls-4{fill:#fcbf29;}.cls-5{fill:#fedb41;}.cls-6{fill:#fe8821;}.cls-7{fill:#ef8035;}</style><linearGradient id="Degradado_sin_nombre_88" x1="1.44" y1="128.42" x2="256.6" y2="128.42" gradientUnits="userSpaceOnUse"><stop offset="0" stop-color="#005ca8"/><stop offset="0.23" stop-color="#0e6eb2"/><stop offset="0.46" stop-color="#197cb9"/><stop offset="0.64" stop-color="#2c93d7"/><stop offset="0.82" stop-color="#3aa3ed"/><stop offset="0.93" stop-color="#3fa9f5"/></linearGradient></defs><title>New landing icons</title><path class="cls-1" d="M129,256A127.58,127.58,0,1,1,256.6,128.42,127.73,127.73,0,0,1,129,256Zm0-240.77A113.19,113.19,0,1,0,242.21,128.42,113.32,113.32,0,0,0,129,15.23Z"/><path class="cls-2" d="M166.53,130.55v53a4.05,4.05,0,0,1-2.83,3.92l-50,16.67c-.17.08-.25.08-.42.17a5.08,5.08,0,0,1-1.83,0c-.08-.08-.25-.08-.42-.17L61,187.51a4.05,4.05,0,0,1-2.83-3.92v-53a4.13,4.13,0,0,1,4.17-4.17h100A4.13,4.13,0,0,1,166.53,130.55Z"/><path class="cls-3" d="M166.53,112.47l-31.78-2.08-24.12-4.22,1.72-10.37L129.2,64.48a4.17,4.17,0,0,1,5-2.12l46.38,14.46a4.17,4.17,0,0,1,2.5,5.85Z"/><path class="cls-4" d="M58.17,112.47l31.78-2.08,9.9-2.4,12.5-12.18L95.5,64.48a4.17,4.17,0,0,0-5-2.12L44.17,76.82a4.17,4.17,0,0,0-2.5,5.85Z"/><path class="cls-3" d="M166.53,130.55v53a4.05,4.05,0,0,1-2.83,3.92l-50,16.67c-.17.08-.25.08-.42.17a3.42,3.42,0,0,1-.92.08v-78h50A4.13,4.13,0,0,1,166.53,130.55Z"/><path class="cls-4" d="M180.54,139.42,132,154.79a4.17,4.17,0,0,1-4.69-1.67l-14.95-24,8.3-10.89L149.86,115l16.67-2.56,16.25,20.66A4.17,4.17,0,0,1,180.54,139.42Z"/><path class="cls-5" d="M44.17,139.42l48.55,15a4.17,4.17,0,0,0,4.69-1.67l14.95-23.62-9-11.12-27-2.55-18.1-3L41.92,133.12A4.17,4.17,0,0,0,44.17,139.42Z"/><polygon class="cls-2" points="166.53 112.47 112.35 129.14 58.17 112.47 112.35 95.8 166.53 112.47"/><polygon class="cls-6" points="166.53 112.47 112.35 129.14 112.35 95.8 166.53 112.47"/><polygon class="cls-4" points="200.06 210.67 145.79 207.13 145.79 152.64 201.95 155.29 200.06 210.67"/><polygon class="cls-3" points="145.79 152.64 156.19 133.54 205.99 135.6 201.85 155.79 145.79 152.64"/><polygon class="cls-2" points="205.99 135.6 201.85 155.79 199.96 210.67 203.36 195.35 205.99 135.6"/><line class="cls-6" x1="145.79" y1="152.64" x2="205.86" y2="135.98"/><polygon class="cls-7" points="146.03 153.51 145.55 151.77 205.62 135.11 206.1 136.85 146.03 153.51"/><line class="cls-6" x1="156.18" y1="133.54" x2="201.85" y2="155.79"/><rect class="cls-7" x="178.12" y="119.26" width="1.8" height="50.8" transform="translate(-29.44 242.24) rotate(-64.02)"/></svg>