<svg id="Capa_1" data-name="Capa 1" xmlns="http://www.w3.org/2000/svg" xmlns:xlink="http://www.w3.org/1999/xlink" viewBox="0 0 256 256"><defs><style>.cls-1{fill:url(#Degradado_sin_nombre_88);}.cls-2{fill:#464655;}.cls-3{fill:#fff;}.cls-4{fill:#bec8dc;}.cls-5{fill:#afbbd0;}.cls-6{fill:#96a5b9;}.cls-7{fill:#e4eaf6;}.cls-8{fill:#608778;}.cls-9{fill:#fea832;}.cls-10{fill:#fe9923;}.cls-11{fill:#fcbf29;}.cls-12{fill:#fedb41;}.cls-13{fill:#fe8821;}</style><linearGradient id="Degradado_sin_nombre_88" x1="0.44" y1="128.06" x2="255.6" y2="128.06" gradientUnits="userSpaceOnUse"><stop offset="0" stop-color="#005ca8"/><stop offset="0.23" stop-color="#0e6eb2"/><stop offset="0.46" stop-color="#197cb9"/><stop offset="0.64" stop-color="#2c93d7"/><stop offset="0.82" stop-color="#3aa3ed"/><stop offset="0.93" stop-color="#3fa9f5"/></linearGradient></defs><title>New landing icons</title><path class="cls-1" d="M128,255.65A127.58,127.58,0,1,1,255.6,128.07,127.73,127.73,0,0,1,128,255.65Zm0-240.77A113.19,113.19,0,1,0,241.21,128.07,113.32,113.32,0,0,0,128,14.87Z"/><path class="cls-2" d="M200.46,62.33H55.58a5.37,5.37,0,0,0-5.37,5.37v85.85H205.83V67.7A5.37,5.37,0,0,0,200.46,62.33Zm-2.68,83.17H58.27V70.38H197.78Z"/><path class="cls-3" d="M111.92,103.92a1.34,1.34,0,0,1,1.34,1.34h4v-4h-5.37a1.34,1.34,0,1,1,0-2.68h5.37V81.11H93.14v24.15h17.44A1.34,1.34,0,0,1,111.92,103.92Z"/><path class="cls-3" d="M58.27,145.5H197.78V70.38H58.27Zm104.63-32.2V78.43a2.68,2.68,0,0,1,2.68-2.68h24.15a2.68,2.68,0,0,1,2.68,2.68v59a2.68,2.68,0,0,1-2.68,2.68H165.58a2.68,2.68,0,0,1-2.68-2.68ZM63.63,78.43a2.68,2.68,0,0,1,2.68-2.68h8A2.68,2.68,0,0,1,77,78.43v59a2.68,2.68,0,0,1-2.68,2.68h-8a2.68,2.68,0,0,1-2.68-2.68Z"/><path class="cls-4" d="M50.22,164.28a5.37,5.37,0,0,0,5.37,5.37H200.46a5.37,5.37,0,0,0,5.37-5.37V153.55H50.22ZM128,157.58a4,4,0,1,1-4,4A4,4,0,0,1,128,157.58Z"/><polygon class="cls-5" points="104.21 188.43 151.83 188.43 150.16 175.02 105.89 175.02 104.21 188.43"/><path class="cls-4" d="M103.88,188.43a2.68,2.68,0,0,0,0,5.37h48.29a2.68,2.68,0,0,0,0-5.37H103.88Z"/><polygon class="cls-6" points="105.89 175.02 150.16 175.02 149.49 169.65 106.56 169.65 105.89 175.02"/><circle class="cls-6" cx="128.02" cy="161.6" r="4.02"/><path class="cls-4" d="M66.31,140.14h8A2.68,2.68,0,0,0,77,137.45v-59a2.68,2.68,0,0,0-2.68-2.68h-8a2.68,2.68,0,0,0-2.68,2.68v59A2.68,2.68,0,0,0,66.31,140.14Zm2.68-59h2.68a2.68,2.68,0,0,1,0,5.37H69a2.68,2.68,0,0,1,0-5.37Zm0,8h2.68a2.68,2.68,0,0,1,0,5.37H69a2.68,2.68,0,0,1,0-5.37Zm0,8h2.68a2.68,2.68,0,1,1,0,5.37H69a2.68,2.68,0,0,1,0-5.37Zm0,8h2.68a2.68,2.68,0,0,1,0,5.37H69a2.68,2.68,0,0,1,0-5.37Zm0,8h2.68a2.68,2.68,0,0,1,0,5.37H69a2.68,2.68,0,0,1,0-5.37Zm-2.68,13.41A2.68,2.68,0,0,1,69,124h2.68a2.68,2.68,0,0,1,2.68,2.68v5.37a2.68,2.68,0,0,1-2.68,2.68H69a2.68,2.68,0,0,1-2.68-2.68Z"/><path class="cls-7" d="M69,86.48h2.68a2.68,2.68,0,1,0,0-5.37H69a2.68,2.68,0,0,0,0,5.37Z"/><path class="cls-6" d="M69,94.53h2.68a2.68,2.68,0,0,0,0-5.37H69a2.68,2.68,0,0,0,0,5.37Z"/><path class="cls-7" d="M69,102.58h2.68a2.68,2.68,0,1,0,0-5.37H69a2.68,2.68,0,0,0,0,5.37Z"/><path class="cls-7" d="M69,110.63h2.68a2.68,2.68,0,1,0,0-5.37H69a2.68,2.68,0,0,0,0,5.37Z"/><path class="cls-7" d="M69,118.67h2.68a2.68,2.68,0,0,0,0-5.37H69a2.68,2.68,0,0,0,0,5.37Z"/><path class="cls-6" d="M69,134.77h2.68a2.68,2.68,0,0,0,2.68-2.68v-5.37A2.68,2.68,0,0,0,71.68,124H69a2.68,2.68,0,0,0-2.68,2.68v5.37A2.68,2.68,0,0,0,69,134.77Z"/><path class="cls-4" d="M192.41,78.43a2.68,2.68,0,0,0-2.68-2.68H165.58a2.68,2.68,0,0,0-2.68,2.68v16.1h29.51V78.43Zm-4,13.41H166.93a1.34,1.34,0,1,1,0-2.68h21.46a1.34,1.34,0,0,1,0,2.68Zm0-5.37H166.93a1.34,1.34,0,1,1,0-2.68h21.46a1.34,1.34,0,1,1,0,2.68Zm0-5.37H166.93a1.34,1.34,0,1,1,0-2.68h21.46a1.34,1.34,0,1,1,0,2.68Z"/><path class="cls-4" d="M165.58,140.14h24.15a2.68,2.68,0,0,0,2.68-2.68V113.31H162.9v24.15A2.68,2.68,0,0,0,165.58,140.14ZM177.66,116h10.73a1.34,1.34,0,0,1,0,2.68H177.66a1.34,1.34,0,0,1,0-2.68Zm0,5.37h10.73a1.34,1.34,0,0,1,0,2.68H177.66a1.34,1.34,0,0,1,0-2.68Zm0,5.37h10.73a1.34,1.34,0,0,1,0,2.68H177.66a1.34,1.34,0,0,1,0-2.68Zm0,5.37h10.73a1.34,1.34,0,0,1,0,2.68H177.66a1.34,1.34,0,1,1,0-2.68ZM172.29,116h0a1.34,1.34,0,0,1,0,2.68h0a1.34,1.34,0,0,1,0-2.68Zm0,5.37h0a1.34,1.34,0,0,1,0,2.68h0a1.34,1.34,0,0,1,0-2.68Zm0,5.37h0a1.34,1.34,0,0,1,0,2.68h0a1.34,1.34,0,0,1,0-2.68Zm0,5.37h0a1.34,1.34,0,1,1,0,2.68h0a1.34,1.34,0,1,1,0-2.68ZM166.93,116h0a1.34,1.34,0,0,1,0,2.68h0a1.34,1.34,0,1,1,0-2.68Zm0,5.37h0a1.34,1.34,0,0,1,0,2.68h0a1.34,1.34,0,1,1,0-2.68Zm0,5.37h0a1.34,1.34,0,0,1,0,2.68h0a1.34,1.34,0,1,1,0-2.68Zm0,5.37h0a1.34,1.34,0,1,1,0,2.68h0a1.34,1.34,0,1,1,0-2.68Z"/><path class="cls-6" d="M192.41,94.53H162.9v18.78h29.51Zm-22.8,16.1h-2.68a1.34,1.34,0,1,1,0-2.68h2.68a1.34,1.34,0,1,1,0,2.68Zm0-5.37h-2.68a1.34,1.34,0,1,1,0-2.68h2.68a1.34,1.34,0,1,1,0,2.68Zm0-5.37h-2.68a1.34,1.34,0,1,1,0-2.68h2.68a1.34,1.34,0,1,1,0,2.68Zm18.78,10.73H175a1.34,1.34,0,0,1,0-2.68h13.41a1.34,1.34,0,0,1,0,2.68Zm0-5.37H175a1.34,1.34,0,1,1,0-2.68h13.41a1.34,1.34,0,0,1,0,2.68Zm0-5.37H175a1.34,1.34,0,1,1,0-2.68h13.41a1.34,1.34,0,1,1,0,2.68Z"/><path class="cls-6" d="M188.39,78.43h-16.1a1.34,1.34,0,1,1,0,2.68h16.1a1.34,1.34,0,1,0,0-2.68Z"/><path class="cls-6" d="M168.27,79.77a1.34,1.34,0,0,1,1.34-1.34h-2.68a1.34,1.34,0,1,0,0,2.68h2.68A1.34,1.34,0,0,1,168.27,79.77Z"/><path class="cls-6" d="M188.39,89.16H177.66a1.34,1.34,0,0,1,0,2.68h10.73a1.34,1.34,0,0,0,0-2.68Z"/><path class="cls-6" d="M173.63,90.5A1.34,1.34,0,0,1,175,89.16h-8a1.34,1.34,0,1,0,0,2.68h8A1.34,1.34,0,0,1,173.63,90.5Z"/><path class="cls-4" d="M188.39,97.21H175a1.34,1.34,0,1,0,0,2.68h13.41a1.34,1.34,0,1,0,0-2.68Z"/><path class="cls-6" d="M181.68,85.14A1.34,1.34,0,0,1,183,83.8h-16.1a1.34,1.34,0,1,0,0,2.68H183A1.34,1.34,0,0,1,181.68,85.14Z"/><path class="cls-6" d="M188.39,83.8h-2.68a1.34,1.34,0,1,1,0,2.68h2.68a1.34,1.34,0,1,0,0-2.68Z"/><path class="cls-7" d="M173.63,79.77a1.34,1.34,0,0,0-1.34-1.34h-2.68a1.34,1.34,0,0,0,0,2.68h2.68A1.34,1.34,0,0,0,173.63,79.77Z"/><path class="cls-7" d="M179,90.5a1.34,1.34,0,0,0-1.34-1.34H175a1.34,1.34,0,1,0,0,2.68h2.68A1.34,1.34,0,0,0,179,90.5Z"/><path class="cls-7" d="M169.61,97.21h-2.68a1.34,1.34,0,1,0,0,2.68h2.68a1.34,1.34,0,1,0,0-2.68Z"/><path class="cls-4" d="M188.39,102.58H175a1.34,1.34,0,1,0,0,2.68h13.41a1.34,1.34,0,0,0,0-2.68Z"/><path class="cls-7" d="M169.61,102.58h-2.68a1.34,1.34,0,1,0,0,2.68h2.68a1.34,1.34,0,1,0,0-2.68Z"/><path class="cls-4" d="M188.39,107.94H175a1.34,1.34,0,0,0,0,2.68h13.41a1.34,1.34,0,0,0,0-2.68Z"/><path class="cls-7" d="M169.61,107.94h-2.68a1.34,1.34,0,1,0,0,2.68h2.68a1.34,1.34,0,1,0,0-2.68Z"/><path class="cls-7" d="M166.93,124h0a1.34,1.34,0,0,0,0-2.68h0a1.34,1.34,0,1,0,0,2.68Z"/><path class="cls-7" d="M166.93,118.67h0a1.34,1.34,0,0,0,0-2.68h0a1.34,1.34,0,1,0,0,2.68Z"/><path class="cls-7" d="M166.93,134.77h0a1.34,1.34,0,1,0,0-2.68h0a1.34,1.34,0,1,0,0,2.68Z"/><path class="cls-7" d="M166.93,129.41h0a1.34,1.34,0,0,0,0-2.68h0a1.34,1.34,0,1,0,0,2.68Z"/><path class="cls-6" d="M172.29,124h0a1.34,1.34,0,0,0,0-2.68h0a1.34,1.34,0,0,0,0,2.68Z"/><path class="cls-6" d="M172.29,118.67h0a1.34,1.34,0,0,0,0-2.68h0a1.34,1.34,0,0,0,0,2.68Z"/><path class="cls-6" d="M172.29,134.77h0a1.34,1.34,0,1,0,0-2.68h0a1.34,1.34,0,1,0,0,2.68Z"/><path class="cls-6" d="M172.29,129.41h0a1.34,1.34,0,0,0,0-2.68h0a1.34,1.34,0,0,0,0,2.68Z"/><path class="cls-6" d="M177.66,124h10.73a1.34,1.34,0,0,0,0-2.68H177.66a1.34,1.34,0,0,0,0,2.68Z"/><path class="cls-6" d="M177.66,118.67h10.73a1.34,1.34,0,0,0,0-2.68H177.66a1.34,1.34,0,0,0,0,2.68Z"/><path class="cls-6" d="M177.66,134.77h10.73a1.34,1.34,0,0,0,0-2.68H177.66a1.34,1.34,0,1,0,0,2.68Z"/><path class="cls-6" d="M177.66,129.41h10.73a1.34,1.34,0,0,0,0-2.68H177.66a1.34,1.34,0,0,0,0,2.68Z"/><path class="cls-7" d="M187,85.14a1.34,1.34,0,0,0-1.34-1.34H183a1.34,1.34,0,0,0,0,2.68h2.68A1.34,1.34,0,0,0,187,85.14Z"/><polygon class="cls-8" points="127.99 100.54 127.99 107.91 130.14 107.22 132.9 106.34 134.59 105.81 134.59 98.44 127.99 100.54"/><path class="cls-9" d="M141,107.7v17.5a1.34,1.34,0,0,1-.94,1.29l-16.5,5.5-.14.06a1.68,1.68,0,0,1-.61,0s-.08,0-.14-.06l-16.5-5.5a1.34,1.34,0,0,1-.94-1.29V107.7a1.36,1.36,0,0,1,1.38-1.38h33A1.36,1.36,0,0,1,141,107.7Z"/><path class="cls-10" d="M141,101.73,130.51,101l-8-1.39.57-3.42,5.56-10.33a1.38,1.38,0,0,1,1.63-.7L145.62,90a1.38,1.38,0,0,1,.83,1.93Z"/><path class="cls-11" d="M105.24,101.73l10.49-.69,3.27-.79,4.13-4L117.56,85.9a1.38,1.38,0,0,0-1.63-.7L100.62,90a1.38,1.38,0,0,0-.83,1.93Z"/><path class="cls-10" d="M141,107.7v17.5a1.34,1.34,0,0,1-.94,1.29l-16.5,5.5-.14.06a1.13,1.13,0,0,1-.3,0V106.32h16.5A1.36,1.36,0,0,1,141,107.7Z"/><path class="cls-11" d="M145.62,110.62l-16,5.07a1.38,1.38,0,0,1-1.55-.55l-4.93-7.91,2.74-3.59,9.64-1.06,5.5-.85,5.36,6.82A1.38,1.38,0,0,1,145.62,110.62Z"/><path class="cls-12" d="M100.62,110.62l16,5a1.38,1.38,0,0,0,1.55-.55l4.93-7.79-3-3.67-8.93-.84-6-1-5.36,6.82A1.38,1.38,0,0,0,100.62,110.62Z"/><polygon class="cls-9" points="141 101.73 123.12 107.23 105.24 101.73 123.12 96.23 141 101.73"/><polygon class="cls-13" points="141 101.73 123.12 107.23 123.12 96.23 141 101.73"/></svg>