<svg id="Capa_1" data-name="Capa 1" xmlns="http://www.w3.org/2000/svg" xmlns:xlink="http://www.w3.org/1999/xlink" viewBox="0 0 256 256"><defs><style>.cls-1{fill:#707487;}.cls-2{fill:#e6af78;}.cls-3{fill:#b4e1fa;}.cls-4{fill:#d29b6e;}.cls-5{fill:#f0c087;}.cls-6{fill:#a0d2f0;}.cls-7{fill:#5b5d6e;}.cls-8{fill:#515262;}.cls-9{fill:#785550;}.cls-10{fill:#694b4b;}.cls-11{fill:#5a4146;}.cls-12{fill:#464655;}.cls-13{fill:url(#Degradado_sin_nombre_88);}</style><linearGradient id="Degradado_sin_nombre_88" y1="128" x2="256" y2="128" gradientUnits="userSpaceOnUse"><stop offset="0" stop-color="#005ca8"/><stop offset="0.23" stop-color="#0e6eb2"/><stop offset="0.46" stop-color="#197cb9"/><stop offset="0.64" stop-color="#2c93d7"/><stop offset="0.82" stop-color="#3aa3ed"/><stop offset="0.93" stop-color="#3fa9f5"/></linearGradient></defs><title>ICONO</title><path class="cls-1" d="M87.73,130.26l-4.4-2.2a3,3,0,0,1-1.68-2.72V113.89a3,3,0,0,1,1.68-2.72l4.4-2.2Z"/><polygon class="cls-2" points="157.69 169.8 157.69 148.51 102.94 148.51 102.94 169.8 130.31 194.13 157.69 169.8"/><path class="cls-3" d="M200,179.76l-37.64-8.86a6,6,0,0,1-1.58-.64L130.31,188,101,169.41a6.06,6.06,0,0,1-2.77,1.5l-37.64,8.86a12.17,12.17,0,0,0-9.38,11.84v23.82a6.08,6.08,0,0,0,6.08,6.08l42.05,20.24c16.74,6.15,46.38,5.46,63.26-.29l40.69-19.94a6.08,6.08,0,0,0,6.08-6.08V191.6A12.17,12.17,0,0,0,200,179.76Z"/><path class="cls-4" d="M102.94,148.51V171c34.48,12.42,54.75-18.67,54.75-18.67v-3.79H102.94Z"/><path class="cls-5" d="M90.77,78.55l2.65,58.31a18.25,18.25,0,0,0,7.28,13.77l12.58,9.43a18.25,18.25,0,0,0,10.95,3.65h12.17a18.25,18.25,0,0,0,10.95-3.65l12.58-9.43a18.25,18.25,0,0,0,7.28-13.77l2.65-58.31Z"/><path class="cls-2" d="M121.19,90.72c12.17,0,30.42-3,34.74-12.17H90.77l2.65,58.31a18.25,18.25,0,0,0,7.28,13.77l12.58,9.43a18.25,18.25,0,0,0,10.95,3.65h6.08c-6.08,0-18.25-12.17-18.25-27.37V99.84C112.06,96.8,115.1,90.72,121.19,90.72Z"/><path class="cls-6" d="M73.56,201.77l-19.71-17.7a12.15,12.15,0,0,0-2.62,7.54v23.82a6.08,6.08,0,0,0,6.08,6.08l20,11.41,1.31-19.84A15.21,15.21,0,0,0,73.56,201.77Z"/><path class="cls-6" d="M187.06,201.77l19.71-17.7a12.15,12.15,0,0,1,2.62,7.54v23.82a6.08,6.08,0,0,1-6.08,6.08L182,233.8V213.08A15.21,15.21,0,0,1,187.06,201.77Z"/><polygon class="cls-7" points="137.91 247.04 130.56 247.04 122.71 247.04 124.61 194.13 136.01 194.13 137.91 247.04"/><path class="cls-8" d="M137.92,188H122.71v5.72a3.4,3.4,0,0,0,3.4,3.4h8.41a3.4,3.4,0,0,0,3.4-3.4V188Z"/><path class="cls-6" d="M102.51,163l27.8,25a104.91,104.91,0,0,0-17.39,11.85,3.9,3.9,0,0,1-6-1.37L93.81,169.8l4.13-6.2A3,3,0,0,1,102.51,163Z"/><path class="cls-6" d="M158.11,163l-27.8,25a104.91,104.91,0,0,1,17.39,11.85,3.9,3.9,0,0,0,6-1.37l13.06-28.74-4.13-6.2A3,3,0,0,0,158.11,163Z"/><path class="cls-9" d="M148.75,58.4l2.85,20.15c13,2.6,14.89,23,15.16,28.86a6,6,0,0,0,1,3l5,7.7s-1.7-12.74,6.08-21.29C178.78,96.8,181.45,46.23,148.75,58.4Z"/><path class="cls-10" d="M93.69,53,98.18,56C77.84,71,81.65,96.8,81.65,96.8c6.08,6.08,6.08,21.29,6.08,21.29L93.81,112s-2.35-17.57,9.12-24.33c10.65-6.27,20-3,29.47-3,25.47,0,32.6-9.6,31.37-21.29-.64-6-9.89-18.65-33.46-18.25C120.8,45.26,102.94,48.14,93.69,53Z"/><path class="cls-11" d="M91.91,82S88.68,69.24,98.18,56C77.84,71,81.65,96.8,81.65,96.8c6.08,6.08,6.08,21.29,6.08,21.29L93.81,112s-2.35-17.57,9.12-24.33c10.65-6.27,20-3,29.47-3a74.73,74.73,0,0,0,11-.75C123.75,84.54,112.19,69.68,91.91,82Z"/><path class="cls-7" d="M92.29,133.3H87.73a3,3,0,0,1-3-3V109a3,3,0,0,1,3-3h4.56a1.52,1.52,0,0,1,1.52,1.52v24.33A1.52,1.52,0,0,1,92.29,133.3Z"/><path class="cls-12" d="M142.48,150.79v-4.56c20.59,0,25.09-11.53,25.09-16h4.56C172.13,136,166.81,150.79,142.48,150.79Z"/><path class="cls-7" d="M142.48,151.55h-3a3,3,0,0,1-3-3h0a3,3,0,0,1,3-3h3a3,3,0,0,1,3,3h0A3,3,0,0,1,142.48,151.55Z"/><path class="cls-1" d="M172.89,130.26l4.4-2.2a3,3,0,0,0,1.68-2.72V113.89a3,3,0,0,0-1.68-2.72l-4.4-2.2Z"/><path class="cls-7" d="M168.33,133.3h4.56a3,3,0,0,0,3-3V109a3,3,0,0,0-3-3h-4.56a1.52,1.52,0,0,0-1.52,1.52v24.33A1.52,1.52,0,0,0,168.33,133.3Z"/><path class="cls-6" d="M169.85,215.42H148.56a3,3,0,0,0-3,3v3h27.37v-3A3,3,0,0,0,169.85,215.42Z"/><path class="cls-13" d="M128,256A128,128,0,1,1,256,128,128.15,128.15,0,0,1,128,256Zm0-236.27A108.27,108.27,0,1,0,236.27,128,108.39,108.39,0,0,0,128,19.73Z"/></svg>