<svg id="Capa_1" data-name="Capa 1" xmlns="http://www.w3.org/2000/svg" xmlns:xlink="http://www.w3.org/1999/xlink" viewBox="0 0 256 256"><defs><style>.cls-1{fill:url(#Degradado_sin_nombre_88);}.cls-2{fill:#00d2ff;}.cls-3{fill:#18bdf6;}.cls-4{fill:#eff2fa;}.cls-5{fill:#e4eaf6;}.cls-6{fill:#ff6464;}.cls-7{fill:#d2555a;}</style><linearGradient id="Degradado_sin_nombre_88" y1="128" x2="256" y2="128" gradientUnits="userSpaceOnUse"><stop offset="0" stop-color="#005ca8"/><stop offset="0.23" stop-color="#0e6eb2"/><stop offset="0.46" stop-color="#197cb9"/><stop offset="0.64" stop-color="#2c93d7"/><stop offset="0.82" stop-color="#3aa3ed"/><stop offset="0.93" stop-color="#3fa9f5"/></linearGradient></defs><title>ICONO</title><path class="cls-1" d="M128,256A128,128,0,1,1,256,128,128.15,128.15,0,0,1,128,256Zm0-236.27A108.27,108.27,0,1,0,236.27,128,108.39,108.39,0,0,0,128,19.73Z"/><path class="cls-2" d="M122.47,208.15a69.1,69.1,0,1,1,69.1-69.1A69.18,69.18,0,0,1,122.47,208.15Z"/><path class="cls-3" d="M154.71,185.12a69,69,0,0,1-54.5-111.41A69,69,0,1,0,177,181.37,68.67,68.67,0,0,1,154.71,185.12Z"/><path class="cls-4" d="M159.69,100.67h20.2q-1.78-2.65-3.79-5.12H157.68C153.61,86,148.24,78.16,142,72.79a68.83,68.83,0,0,0-39.08,0C96.7,78.16,91.33,86,87.26,95.55H68.84q-2,2.47-3.79,5.12h20.2A114.52,114.52,0,0,0,79,136.5H53.44c0,.85-.06,1.7-.06,2.56s0,1.71.06,2.56H79a114.52,114.52,0,0,0,6.25,35.83H65.05q1.78,2.65,3.79,5.12H87.26c4.07,9.56,9.45,17.39,15.67,22.76a68.83,68.83,0,0,0,39.08,0c6.23-5.37,11.6-13.2,15.67-22.76H176.1q2-2.47,3.79-5.12h-20.2a114.52,114.52,0,0,0,6.25-35.83H191.5c0-.85.06-1.7.06-2.56s0-1.71-.06-2.56H165.94A114.52,114.52,0,0,0,159.69,100.67ZM119.91,208c-11-1.31-20.7-10.94-27.24-25.42h27.24V208Zm0-30.54H90.57a110,110,0,0,1-6.45-35.83h35.79v35.83Zm0-40.95H84.12a110,110,0,0,1,6.45-35.83h29.34V136.5Zm0-40.95H92.68c6.54-14.48,16.26-24.11,27.24-25.42V95.55ZM125,70.13c11,1.31,20.7,10.94,27.24,25.42H125V70.13ZM125,208V182.56h27.24C145.73,197,136,206.67,125,208Zm29.34-30.54H125V141.61h35.79A110,110,0,0,1,154.37,177.44ZM125,136.5V100.67h29.34a110,110,0,0,1,6.45,35.83Z"/><path class="cls-5" d="M128.43,207.86c1.14-.1,2.28-.22,3.41-.37l1.31-.2q1.74-.27,3.45-.63l1.06-.22q2-.46,4-1l.34-.09c5.67-4.89,10.63-11.85,14.54-20.27-.62,0-1.22.08-1.85.08q-1.82,0-3.62-.1c-6.5,13.1-15.73,21.72-26.06,23V182.56h11.1a68.72,68.72,0,0,1-16.22-6.88v1.77H90.57a110,110,0,0,1-6.45-35.83h6.43c-.67-1.68-1.3-3.38-1.84-5.12h-4.6a120.06,120.06,0,0,1,1.58-17.14c-.05-1.1-.08-2.21-.08-3.33a68.34,68.34,0,0,1,9-33.85,73.35,73.35,0,0,0-7.34,13.38H68.93q-.68.84-1.34,1.69C67,98,66.5,98.68,66,99.41c-.29.41-.56.84-.85,1.26H85.25A114.52,114.52,0,0,0,79,136.5H53.48c0,.85-.1,1.7-.1,2.56s0,1.71.06,2.56H79a114.52,114.52,0,0,0,6.25,35.83H65.05q1.78,2.65,3.79,5.12H87.26c4.07,9.56,9.45,17.39,15.67,22.76q2.28.67,4.63,1.19l.14,0q2.34.52,4.74.87l.2,0c1.39.2,2.81.35,4.23.46l1.05.08c1.51.1,3,.17,4.56.17s3.13-.07,4.68-.17Zm-8.52.12c-11-1.31-20.7-10.94-27.24-25.42h27.24V208Z"/><path class="cls-5" d="M177,181.37c-1.3.45-2.64.82-4,1.19h3C176.32,182.16,176.66,181.78,177,181.37Z"/><path class="cls-6" d="M72.72,47.85A19.35,19.35,0,0,0,53.37,67.2c0,16.58,19.35,30.4,19.35,30.4S92.07,83.78,92.07,67.2A19.35,19.35,0,0,0,72.72,47.85Zm0,30.4A11.06,11.06,0,1,1,83.78,67.2,11.06,11.06,0,0,1,72.72,78.25Z"/><path class="cls-7" d="M61.67,67.2a11,11,0,0,1,3.52-8.05c1.31-6.66,4.19-11.29,7.53-11.29A19.35,19.35,0,0,0,53.37,67.2c0,16.58,19.35,30.4,19.35,30.4a67.92,67.92,0,0,1-7.67-22.46A11,11,0,0,1,61.67,67.2Z"/><path class="cls-6" d="M183.27,103.13a19.35,19.35,0,0,0-19.35,19.35c0,16.58,19.35,30.4,19.35,30.4s19.35-13.82,19.35-30.4A19.35,19.35,0,0,0,183.27,103.13Zm0,30.4a11.06,11.06,0,1,1,11.06-11.06A11.06,11.06,0,0,1,183.27,133.53Z"/><path class="cls-7" d="M172.22,122.47a11,11,0,0,1,3.52-8.05c1.31-6.66,4.19-11.29,7.53-11.29a19.35,19.35,0,0,0-19.35,19.35c0,16.58,19.35,30.4,19.35,30.4a67.92,67.92,0,0,1-7.67-22.46A11,11,0,0,1,172.22,122.47Z"/><path class="cls-6" d="M108.65,136.29A19.35,19.35,0,0,0,89.3,155.64c0,16.58,19.35,30.4,19.35,30.4S128,172.22,128,155.64A19.35,19.35,0,0,0,108.65,136.29Zm0,30.4a11.06,11.06,0,1,1,11.06-11.06A11.06,11.06,0,0,1,108.65,166.69Z"/><path class="cls-7" d="M97.6,155.64a11,11,0,0,1,3.52-8.05c1.31-6.66,4.19-11.29,7.53-11.29A19.35,19.35,0,0,0,89.3,155.64c0,16.58,19.35,30.4,19.35,30.4A67.92,67.92,0,0,1,101,163.58,11,11,0,0,1,97.6,155.64Z"/></svg>